PathFileType	4	(X/Y/Z)	 2.2Hz3min.trc
DataRate	CameraRate	NumFrames	NumMarkers	Units	OrigDataRate	OrigDataStartFrame	OrigNumFrames
200	200	9	35	m	200	126	1000
Frame#	Time	C7			LSH			RSH			MAN			RASI			LASI			HIPR			HIPL			RPSI			LPSI			COX			RTHI1			RTHI2			RTHI3			RTHI4			RSHA1			RSHA2			RSHA3			RSHA4			RHEEL			RMET5			RMET1			RTOE			LTHI1			LTHI2			LTHI3			LTHI4			LSHA1			LSHA2			LSHA3			LSHA4			LHEEL			LMET5			LMET1			LTOE			
		X1	Y1	Z1	X2	Y2	Z2	X3	Y3	Z3	X4	Y4	Z4	X5	Y5	Z5	X6	Y6	Z6	X7	Y7	Z7	X8	Y8	Z8	X9	Y9	Z9	X10	Y10	Z10	X11	Y11	Z11	X12	Y12	Z12	X13	Y13	Z13	X14	Y14	Z14	X15	Y15	Z15	X16	Y16	Z16	X17	Y17	Z17	X18	Y18	Z18	X19	Y19	Z19	X20	Y20	Z20	X21	Y21	Z21	X22	Y22	Z22	X23	Y23	Z23	X24	Y24	Z24	X25	Y25	Z25	X26	Y26	Z26	X27	Y27	Z27	X28	Y28	Z28	X29	Y29	Z29	X30	Y30	Z30	X31	Y31	Z31	X32	Y32	Z32	X33	Y33	Z33	X34	Y34	Z34	X35	Y35	Z35	
126	0.6300	-0.267478	1.288530	-0.512880	-0.226671	1.232857	-0.689781	-0.196721	1.239187	-0.336021	-0.155563	1.225735	-0.521488	-0.138558	0.837381	-0.420073	-0.147439	0.848236	-0.608487	-0.198525	0.889552	-0.372111	-0.203058	0.893368	-0.644950	-0.292940	0.872322	-0.441767	-0.297520	0.874829	-0.557774	-0.298873	0.884106	-0.500012	-0.221161	0.619802	-0.359173	-0.192258	0.567762	-0.351854	-0.137865	0.595693	-0.331683	-0.159249	0.653257	-0.335224	-0.234541	0.268204	-0.323177	-0.260760	0.236883	-0.323174	-0.217607	0.201708	-0.313514	-0.187337	0.231453	-0.315248	-0.371738	0.085370	-0.353650	-0.222465	0.028088	-0.288583	-0.191085	0.031884	-0.370874	-0.168711	0.027310	-0.360069	-0.206516	0.640454	-0.688412	-0.186384	0.582462	-0.693138	-0.123257	0.597437	-0.686100	-0.136017	0.655762	-0.681458	-0.278994	0.243669	-0.705472	-0.299276	0.204977	-0.701803	-0.252437	0.178534	-0.695506	-0.226851	0.209606	-0.699049	-0.403482	0.082088	-0.647104	-0.260024	0.027585	-0.736251	-0.222917	0.034010	-0.662948	-0.196447	0.026836	-0.676890	
127	0.6350	-0.267974	1.291470	-0.512676	-0.227472	1.236073	-0.689516	-0.197182	1.242544	-0.335933	-0.155954	1.229037	-0.521362	-0.137805	0.840222	-0.419889	-0.146727	0.851229	-0.608154	-0.197533	0.892584	-0.371770	-0.202113	0.896563	-0.644483	-0.292057	0.875477	-0.441274	-0.296724	0.878064	-0.557234	-0.298058	0.887227	-0.499522	-0.220957	0.623045	-0.358213	-0.192306	0.570867	-0.350987	-0.137523	0.598524	-0.331564	-0.158632	0.656220	-0.335116	-0.235296	0.269352	-0.323333	-0.261444	0.237890	-0.322990	-0.217995	0.203035	-0.313484	-0.187963	0.233013	-0.315241	-0.371391	0.086227	-0.353301	-0.222369	0.028130	-0.288596	-0.191126	0.031888	-0.370815	-0.168799	0.027293	-0.360045	-0.206346	0.643537	-0.687956	-0.186467	0.585451	-0.692557	-0.123285	0.600136	-0.685321	-0.135801	0.658513	-0.680749	-0.279270	0.245466	-0.705457	-0.299378	0.206646	-0.701857	-0.252420	0.180454	-0.695368	-0.226975	0.211669	-0.698834	-0.403097	0.083575	-0.647697	-0.259883	0.027637	-0.736199	-0.222872	0.034023	-0.662960	-0.196458	0.026820	-0.676822	
128	0.6400	-0.268488	1.294751	-0.512427	-0.228308	1.239674	-0.689225	-0.197476	1.246282	-0.335805	-0.156337	1.232692	-0.521248	-0.137088	0.843497	-0.419657	-0.145991	0.854642	-0.607778	-0.196636	0.896038	-0.371421	-0.201098	0.900208	-0.643940	-0.291185	0.879034	-0.440817	-0.295898	0.881690	-0.556714	-0.297241	0.890729	-0.499068	-0.220763	0.626667	-0.357214	-0.192373	0.574352	-0.350066	-0.137193	0.601740	-0.331429	-0.158018	0.659554	-0.335008	-0.236207	0.270926	-0.323268	-0.262140	0.239180	-0.322859	-0.218358	0.204680	-0.313470	-0.188596	0.234915	-0.315219	-0.370958	0.087408	-0.352959	-0.222255	0.028192	-0.288638	-0.191143	0.031894	-0.370759	-0.168856	0.027280	-0.360035	-0.206131	0.647017	-0.687537	-0.186491	0.588843	-0.692016	-0.123269	0.603244	-0.684553	-0.135547	0.661667	-0.680032	-0.279461	0.247649	-0.705488	-0.299383	0.208700	-0.701958	-0.252313	0.182747	-0.695309	-0.227019	0.214115	-0.698687	-0.402555	0.085428	-0.648346	-0.259714	0.027706	-0.736129	-0.222789	0.034045	-0.662990	-0.196447	0.026806	-0.676745	
129	0.6450	-0.269009	1.298359	-0.512158	-0.229144	1.243616	-0.688912	-0.197620	1.250381	-0.335663	-0.156704	1.236676	-0.521141	-0.136403	0.847177	-0.419378	-0.145243	0.858444	-0.607367	-0.195818	0.899890	-0.371077	-0.200042	0.904240	-0.643351	-0.290337	0.882959	-0.440404	-0.295041	0.885650	-0.556218	-0.296429	0.894580	-0.498656	-0.220589	0.630632	-0.356196	-0.192455	0.578182	-0.349123	-0.136893	0.605301	-0.331285	-0.157421	0.663219	-0.334894	-0.237261	0.272900	-0.322963	-0.262843	0.240779	-0.322782	-0.218711	0.206652	-0.313433	-0.189234	0.237152	-0.315162	-0.370389	0.088825	-0.352669	-0.222116	0.028280	-0.288707	-0.191133	0.031907	-0.370701	-0.168885	0.027274	-0.360035	-0.205875	0.650868	-0.687167	-0.186462	0.592606	-0.691523	-0.123210	0.606734	-0.683810	-0.135260	0.665200	-0.679324	-0.279589	0.250173	-0.705551	-0.299309	0.211103	-0.702100	-0.252121	0.185403	-0.695336	-0.226997	0.216914	-0.698602	-0.401854	0.087610	-0.649026	-0.259520	0.027795	-0.736039	-0.222666	0.034081	-0.663037	-0.196416	0.026793	-0.676662	
130	0.6500	-0.269511	1.302286	-0.511891	-0.229948	1.247864	-0.688583	-0.197666	1.254806	-0.335506	-0.157046	1.240968	-0.521035	-0.135750	0.851228	-0.419054	-0.144482	0.862596	-0.606921	-0.195088	0.904114	-0.370750	-0.198966	0.908597	-0.642751	-0.289512	0.887212	-0.440044	-0.294162	0.889917	-0.555778	-0.295631	0.898741	-0.498291	-0.220445	0.634905	-0.355186	-0.192564	0.582330	-0.348191	-0.136630	0.609172	-0.331106	-0.156868	0.667188	-0.334762	-0.238434	0.275264	-0.322387	-0.263531	0.242679	-0.322735	-0.219034	0.208927	-0.313358	-0.189862	0.239717	-0.315051	-0.369680	0.090478	-0.352435	-0.221947	0.028397	-0.288799	-0.191103	0.031926	-0.370641	-0.168886	0.027274	-0.360044	-0.205588	0.655060	-0.686855	-0.186390	0.596704	-0.691087	-0.123112	0.610580	-0.683117	-0.134952	0.669080	-0.678643	-0.279673	0.252997	-0.705644	-0.299166	0.213815	-0.702275	-0.251852	0.188373	-0.695446	-0.226908	0.220041	-0.698607	-0.400989	0.090082	-0.649715	-0.259304	0.027907	-0.735926	-0.222506	0.034133	-0.663100	-0.196363	0.026779	-0.676576	
131	0.6550	-0.269989	1.306509	-0.511636	-0.230687	1.252387	-0.688243	-0.197664	1.259520	-0.335342	-0.157367	1.245543	-0.520923	-0.135117	0.855615	-0.418687	-0.143713	0.867064	-0.606446	-0.194434	0.908679	-0.370455	-0.197908	0.913228	-0.642163	-0.288715	0.891748	-0.439743	-0.293263	0.894460	-0.555388	-0.294847	0.903173	-0.497974	-0.220351	0.639455	-0.354216	-0.192727	0.586758	-0.347288	-0.136435	0.613324	-0.330912	-0.156384	0.671432	-0.334609	-0.239708	0.277984	-0.321531	-0.264185	0.244870	-0.322680	-0.219315	0.211486	-0.313229	-0.190460	0.242584	-0.314875	-0.368877	0.092423	-0.352176	-0.221745	0.028545	-0.288907	-0.191053	0.031955	-0.370579	-0.168865	0.027281	-0.360059	-0.205282	0.659549	-0.686585	-0.186286	0.601104	-0.690718	-0.122993	0.614748	-0.682487	-0.134634	0.673270	-0.678017	-0.279728	0.256080	-0.705771	-0.298970	0.216793	-0.702491	-0.251518	0.191610	-0.695643	-0.226771	0.223453	-0.698697	-0.399962	0.092798	-0.650398	-0.259055	0.028060	-0.735800	-0.222310	0.034204	-0.663178	-0.196290	0.026766	-0.676490	
132	0.6600	-0.270442	1.311003	-0.511405	-0.231343	1.257151	-0.687898	-0.197703	1.264478	-0.335211	-0.157659	1.250368	-0.520801	-0.134512	0.860290	-0.418283	-0.142943	0.871811	-0.605943	-0.193862	0.913529	-0.370187	-0.196886	0.918095	-0.641605	-0.287941	0.896523	-0.439499	-0.292359	0.899237	-0.555049	-0.294077	0.907848	-0.497702	-0.220319	0.644257	-0.353316	-0.192960	0.591427	-0.346439	-0.136328	0.617711	-0.330674	-0.155989	0.675913	-0.334428	-0.241073	0.281040	-0.320355	-0.264787	0.247295	-0.322581	-0.219553	0.214328	-0.313023	-0.191019	0.245733	-0.314616	-0.367948	0.094605	-0.351871	-0.221509	0.028722	-0.289026	-0.190983	0.031999	-0.370517	-0.168821	0.027298	-0.360079	-0.204975	0.664288	-0.686357	-0.186167	0.605766	-0.690417	-0.122872	0.619192	-0.681930	-0.134314	0.677737	-0.677459	-0.279756	0.259397	-0.705945	-0.298728	0.220000	-0.702747	-0.251121	0.195082	-0.695929	-0.226583	0.227129	-0.698887	-0.398781	0.095717	-0.651056	-0.258771	0.028260	-0.735665	-0.222080	0.034297	-0.663272	-0.196197	0.026754	-0.676407	
133	0.6650	-0.270869	1.315731	-0.511202	-0.231898	1.262120	-0.687554	-0.197829	1.269653	-0.335111	-0.157932	1.255416	-0.520664	-0.133943	0.865200	-0.417852	-0.142177	0.876806	-0.605423	-0.193363	0.918611	-0.369957	-0.195898	0.923187	-0.641091	-0.287194	0.901501	-0.439314	-0.291446	0.904198	-0.554743	-0.293322	0.912719	-0.497478	-0.220365	0.649267	-0.352505	-0.193270	0.596299	-0.345667	-0.136337	0.622304	-0.330405	-0.155711	0.680598	-0.334220	-0.242245	0.284179	-0.319381	-0.265319	0.249969	-0.322414	-0.219753	0.217433	-0.312703	-0.191521	0.249123	-0.314269	-0.366862	0.096964	-0.351516	-0.221237	0.028925	-0.289152	-0.190899	0.032066	-0.370436	-0.168772	0.027319	-0.360091	-0.204682	0.669251	-0.686169	-0.186056	0.610657	-0.690182	-0.122759	0.623870	-0.681462	-0.134010	0.682441	-0.676979	-0.279774	0.262890	-0.706163	-0.298449	0.223385	-0.703047	-0.250670	0.198739	-0.696304	-0.226356	0.231022	-0.699180	-0.397448	0.098800	-0.651686	-0.258450	0.028501	-0.735521	-0.221816	0.034419	-0.663385	-0.196090	0.026738	-0.676327	
134	0.6700	-0.271267	1.320673	-0.511022	-0.232346	1.267272	-0.687212	-0.198053	1.275014	-0.335032	-0.158186	1.260656	-0.520508	-0.133418	0.870310	-0.417401	-0.141411	0.882007	-0.604888	-0.192937	0.923882	-0.369769	-0.194957	0.928462	-0.640611	-0.286472	0.906640	-0.439186	-0.290533	0.909350	-0.554497	-0.292580	0.917752	-0.497300	-0.220498	0.654457	-0.351793	-0.193680	0.601350	-0.344978	-0.136477	0.627069	-0.330091	-0.155566	0.685461	-0.333978	-0.243223	0.287412	-0.318564	-0.265765	0.252843	-0.322157	-0.219876	0.220743	-0.312293	-0.191953	0.252717	-0.313831	-0.365638	0.099512	-0.351072	-0.220931	0.029149	-0.289276	-0.190802	0.032161	-0.370335	-0.168720	0.027345	-0.360090	-0.204418	0.674398	-0.686021	-0.185972	0.615743	-0.690016	-0.122671	0.628746	-0.681091	-0.133735	0.687345	-0.676585	-0.279778	0.266537	-0.706430	-0.298137	0.226897	-0.703395	-0.250171	0.202532	-0.696771	-0.226094	0.235094	-0.699586	-0.395968	0.102017	-0.652289	-0.258091	0.028781	-0.735376	-0.221517	0.034567	-0.663523	-0.195964	0.026721	-0.676258	
